<?xml version="1.0" encoding="UTF-8"?>
<svg version="1.1" fill="none" xmlns="http://www.w3.org/2000/svg" width="125" height="106">
<path d="M0 0 C41.25 0 82.5 0 125 0 C125 34.98 125 69.96 125 106 C83.75 106 42.5 106 0 106 C0 71.02 0 36.04 0 0 Z "  transform="translate(0,0)"/>
<path d="M0 0 C0.7652449 -0.00846954 1.53048981 -0.01693909 2.31892395 -0.02566528 C4.83022017 -0.04892269 7.34089948 -0.05006002 9.85229492 -0.04882812 C11.61195618 -0.0559375 13.37161514 -0.06363763 15.13127136 -0.07189941 C18.8138168 -0.08531912 22.49614795 -0.08692477 26.17871094 -0.08105469 C30.87605979 -0.07516689 35.57237212 -0.10572335 40.26952076 -0.14617157 C43.90290271 -0.17214331 47.53603839 -0.17491733 51.16950035 -0.17127991 C52.90010872 -0.17296291 54.63072948 -0.18252576 56.36124611 -0.20042419 C67.50507322 -0.30299115 76.07544531 0.37974979 84.89526367 7.85742188 C91.8094107 16.19506977 93.01577893 22.72099355 92.02026367 33.41992188 C89.48772503 41.94878521 84.32932401 46.78172167 76.95776367 51.29492188 C70.31922937 53.80314638 61.6594135 53.79627169 55.16479492 50.96679688 C49.79515648 48.05740557 45.82064476 43.61072511 41.64526367 39.23242188 C40.05612186 37.59115621 38.46507288 35.95173429 36.87182617 34.31445312 C36.17911621 33.59104736 35.48640625 32.8676416 34.77270508 32.12231445 C33.11716071 30.34234838 33.11716071 30.34234838 31.02026367 29.41992188 C30.81530273 29.94714844 30.6103418 30.474375 30.39916992 31.01757812 C28.41872913 34.46792114 25.76284081 37.05911356 22.95776367 39.85742188 C22.37792725 40.43782227 21.79809082 41.01822266 21.20068359 41.61621094 C16.88965146 45.81820107 12.58346771 49.0265984 7.02026367 51.41992188 C6.03026367 51.91492187 6.03026367 51.91492187 5.02026367 52.41992188 C-5.03790088 53.22510303 -11.90607582 52.66763765 -19.66723633 46.16992188 C-25.80232229 38.87414397 -28.44330158 32.9373154 -28.31567383 23.36523438 C-27.41665784 15.48316398 -23.1292038 9.9091128 -17.23754883 4.89257812 C-11.57262621 1.19763724 -6.71682313 -0.02783491 0 0 Z " fill="#7A7A7A" transform="translate(29.979736328125,-0.419921875)"/>
<path d="M0 0 C8.68821008 4.41667959 15.70716897 13.18585743 22.4375 20.0625 C20.23179491 25.00719519 16.58152304 28.32519546 12.8125 32.125 C12.12542969 32.84494141 11.43835937 33.56488281 10.73046875 34.30664062 C4.7488443 40.34998916 -0.754197 43.44504521 -9.5 43.625 C-17.21035133 43.43004801 -21.77226188 39.92428268 -27 34.5625 C-30.83572915 28.42533336 -31.4992898 22.16238061 -30.5625 15.0625 C-28.23597395 8.13702712 -23.78901062 3.70982839 -17.5625 0.0625 C-11.85126469 -1.8412451 -5.77856898 -1.52067605 0 0 Z " fill="#FCFCFC" transform="translate(36.5625,4.9375)"/>
<path d="M0 0 C6.04423075 2.69848009 10.12463189 6.30453757 13.27734375 12.15625 C15.16504716 17.81936022 15.49412487 24.95171006 13.37109375 30.54296875 C10.06045863 36.11374899 5.35168715 40.71376926 -0.72265625 43.15625 C-6.94099337 43.96161371 -13.63636245 44.4565176 -19.16015625 41.09375 C-25.11442132 36.41863313 -30.45305998 30.8120459 -35.7578125 25.421875 C-36.32894775 24.84211914 -36.90008301 24.26236328 -37.48852539 23.66503906 C-38.72265625 22.15625 -38.72265625 22.15625 -38.72265625 20.15625 C-37.359375 18.81640625 -37.359375 18.81640625 -35.41015625 17.21875 C-30.7717329 13.30533776 -26.61350197 8.99766574 -22.43359375 4.609375 C-15.77540348 -1.41561562 -8.51503544 -2.63880582 0 0 Z " fill="#FDFDFD" transform="translate(103.72265625,4.84375)"/>
<path d="M0 0 C18.81 0 37.62 0 57 0 C55.44838792 1.03440805 53.88898739 2.06275713 52.265625 2.98046875 C43.62254575 8.15626621 36.93487031 15.79761244 30 23 C26.91956381 21.63643172 24.90989443 20.11310996 22.609375 17.6640625 C21.98160156 17.01179688 21.35382812 16.35953125 20.70703125 15.6875 C19.41364092 14.324406 18.1244889 12.95727649 16.83984375 11.5859375 C13.10272068 7.7194232 9.71422413 4.96683942 4.77050781 2.80224609 C3 2 3 2 0 0 Z " fill="#FCFCFC" transform="translate(33,0)"/>
<path d="M0 0 C1 1 1 1 1.375 3.875 C1 7 1 7 -1.25 8.875 C-4 10 -4 10 -8 10 C-7.67 10.99 -7.34 11.98 -7 13 C-2.545 12.505 -2.545 12.505 2 12 C0 16 0 16 -1 17 C-4.50079361 17.38897707 -6.35448244 17.43616051 -9.3125 15.4375 C-11.59948073 12.13408339 -12.06932688 10.02095879 -12 6 C-8.92740699 0.58062335 -6.04598243 -1.5502519 0 0 Z " fill="#ADADAD" transform="translate(71,68)"/>
<path d="M0 0 C0.66 0 1.32 0 2 0 C2.33 0.66 2.66 1.32 3 2 C3.66 1.34 4.32 0.68 5 0 C7.71269629 -0.34778158 9.32286679 -0.43965521 11.6484375 1.0703125 C13.72420477 4.03398022 13.2854277 6.62946032 13.1875 10.1875 C13.16042969 11.45980469 13.13335937 12.73210937 13.10546875 14.04296875 C13.07066406 15.01878906 13.03585938 15.99460937 13 17 C11.68 17.33 10.36 17.66 9 18 C9 13.38 9 8.76 9 4 C4.79819816 4.5739739 4.79819816 4.5739739 3 8 C2.54398739 10.50896686 2.54398739 10.50896686 2.375 13.1875 C2.30023437 14.08855469 2.22546875 14.98960938 2.1484375 15.91796875 C2.09945313 16.60503906 2.05046875 17.29210937 2 18 C1.01 18 0.02 18 -1 18 C-1.02684312 15.18743719 -1.04676188 12.37512759 -1.0625 9.5625 C-1.07087891 8.76005859 -1.07925781 7.95761719 -1.08789062 7.13085938 C-1.0965143 5.08704779 -1.0522815 3.04316098 -1 1 C-0.67 0.67 -0.34 0.34 0 0 Z " fill="#ADADAD" transform="translate(29,67)"/>
<path d="M0 0 C0.66 0 1.32 0 2 0 C2.33 0.66 2.66 1.32 3 2 C3.66 1.34 4.32 0.68 5 0 C7.4375 -0.375 7.4375 -0.375 10 0 C11.8125 1.4375 11.8125 1.4375 13 4 C13.48651339 8.74129417 13.19261658 13.37861074 12 18 C11.01 18 10.02 18 9 18 C9 13.38 9 8.76 9 4 C7.68 4 6.36 4 5 4 C3.20724134 7.11910856 2.65709282 9.67682428 2.375 13.25 C2.30023438 14.14203125 2.22546875 15.0340625 2.1484375 15.953125 C2.09945312 16.62859375 2.05046875 17.3040625 2 18 C1.01 18 0.02 18 -1 18 C-1.02684312 15.18743719 -1.04676188 12.37512759 -1.0625 9.5625 C-1.07087891 8.76005859 -1.07925781 7.95761719 -1.08789062 7.13085938 C-1.0965143 5.08704779 -1.0522815 3.04316098 -1 1 C-0.67 0.67 -0.34 0.34 0 0 Z " fill="#ADADAD" transform="translate(94,67)"/>
<path d="M0 0 C0.33 0 0.66 0 1 0 C1.59140232 9.12073801 1.49400918 16.3974792 -4 24 C-6.8125 26.625 -6.8125 26.625 -9 28 C-9.99 27.01 -10.98 26.02 -12 25 C-11.59007813 24.54109375 -11.18015625 24.0821875 -10.7578125 23.609375 C-10.21898438 22.99578125 -9.68015625 22.3821875 -9.125 21.75 C-8.59132813 21.14671875 -8.05765625 20.5434375 -7.5078125 19.921875 C-4.65171956 16.28146638 -3.73834665 13.35239092 -3.375 8.75 C-3.30023438 7.85796875 -3.22546875 6.9659375 -3.1484375 6.046875 C-3.09945312 5.37140625 -3.05046875 4.6959375 -3 4 C-2.67 4 -2.34 4 -2 4 C-1.67 5.65 -1.34 7.3 -1 9 C-0.67 6.03 -0.34 3.06 0 0 Z " fill="#7B7B7B" transform="translate(121,19)"/>
<path d="M0 0 C0.66 0 1.32 0 2 0 C2 1.65 2 3.3 2 5 C3.65 5 5.3 5 7 5 C7 5.66 7 6.32 7 7 C5.35 7 3.7 7 2 7 C2 10.96 2 14.92 2 19 C3.65 18.34 5.3 17.68 7 17 C6.67 18.32 6.34 19.64 6 21 C3.625 21.625 3.625 21.625 1 22 C-1 20 -1 20 -1.1953125 17.1796875 C-1.17210937 16.08914062 -1.14890625 14.99859375 -1.125 13.875 C-1.10695312 12.77929688 -1.08890625 11.68359375 -1.0703125 10.5546875 C-1.04710937 9.71164063 -1.02390625 8.86859375 -1 8 C-1.66 8 -2.32 8 -3 8 C-3 7.01 -3 6.02 -3 5 C-2.34 5 -1.68 5 -1 5 C-0.67 3.35 -0.34 1.7 0 0 Z " fill="#A8A8A8" transform="translate(49,63)"/>
<path d="M0 0 C0.66 0 1.32 0 2 0 C2.33 0.66 2.66 1.32 3 2 C3.33 1.67 3.66 1.34 4 1 C5.99958364 0.95919217 8.00045254 0.95745644 10 1 C10.33 1.99 10.66 2.98 11 4 C10.05125 3.938125 9.1025 3.87625 8.125 3.8125 C6.578125 3.9053125 6.578125 3.9053125 5 4 C2.81005752 7.28491373 2.64722661 8.83095639 2.375 12.6875 C2.30023438 13.68136719 2.22546875 14.67523438 2.1484375 15.69921875 C2.09945312 16.45847656 2.05046875 17.21773437 2 18 C1.01 18 0.02 18 -1 18 C-1.02684312 15.18743719 -1.04676188 12.37512759 -1.0625 9.5625 C-1.07087891 8.76005859 -1.07925781 7.95761719 -1.08789062 7.13085938 C-1.0965143 5.08704779 -1.0522815 3.04316098 -1 1 C-0.67 0.67 -0.34 0.34 0 0 Z " fill="#ACACAC" transform="translate(79,67)"/>
<path d="M0 0 C0.66 0.33 1.32 0.66 2 1 C1.67 8.92 1.34 16.84 1 25 C0.01 25 -0.98 25 -2 25 C-2.22147651 7.92170022 -2.22147651 7.92170022 -1 1 C-0.67 0.67 -0.34 0.34 0 0 Z " fill="#AAAAAA" transform="translate(20,60)"/>
<path d="M0 0 C-2.36292656 2.52588702 -3.66462511 3.88820837 -7 5 C-9.57265818 5.07029121 -12.11641431 5.09370832 -14.6875 5.0625 C-15.38939453 5.05798828 -16.09128906 5.05347656 -16.81445312 5.04882812 C-18.54300538 5.03706927 -20.27151365 5.01913454 -22 5 C-21.67 4.34 -21.34 3.68 -21 3 C-18.41796875 2.4375 -18.41796875 2.4375 -15.1875 2 C-0.17350106 -0.04819474 -0.17350106 -0.04819474 0 0 Z " fill="#787878" transform="translate(112,46)"/>
<path d="M0 0 C0.7425 0.0825 1.485 0.165 2.25 0.25 C2.58 1.9 2.91 3.55 3.25 5.25 C0.18882432 7.87386487 -0.48173127 8.25 -4.75 8.25 C-5.41 6.93 -6.07 5.61 -6.75 4.25 C-3.42692308 0.31153846 -3.42692308 0.31153846 0 0 Z " fill="#B1B1B1" transform="translate(66.75,67.75)"/>
<path d="M0 0 C2.0622048 -0.054348 4.12482816 -0.09294961 6.1875 -0.125 C7.33605469 -0.14820312 8.48460937 -0.17140625 9.66796875 -0.1953125 C12.91740372 -0.00484152 15.08660521 0.60639873 18 2 C16.453125 3.61328125 16.453125 3.61328125 14 5 C10.546875 4.41796875 10.546875 4.41796875 6.75 3.1875 C6.1003125 2.98318359 5.450625 2.77886719 4.78125 2.56835938 C3.18198093 2.06270813 1.59016303 1.53359749 0 1 C0 0.67 0 0.34 0 0 Z " fill="#797979" transform="translate(23,1)"/>
<path d="M0 0 C0.33 0 0.66 0 1 0 C1 3.63 1 7.26 1 11 C2.65 10.34 4.3 9.68 6 9 C5.67 10.32 5.34 11.64 5 13 C2.625 13.625 2.625 13.625 0 14 C-2 12 -2 12 -2.125 8.375 C-2.08375 7.26125 -2.0425 6.1475 -2 5 C-1.67 5 -1.34 5 -1 5 C-0.67 3.35 -0.34 1.7 0 0 Z " fill="#AEAEAE" transform="translate(50,71)"/>
<path d="M0 0 C0 0.33 0 0.66 0 1 C-1.10408203 1.02126953 -1.10408203 1.02126953 -2.23046875 1.04296875 C-8.66843321 1.23409178 -8.66843321 1.23409178 -13.9375 4.625 C-14.618125 5.40875 -15.29875 6.1925 -16 7 C-18.3125 6.8125 -18.3125 6.8125 -20 6 C-19 3 -19 3 -16.1875 1.3125 C-11.00419677 -0.76949627 -5.48340739 -0.24310673 0 0 Z " fill="#898989" transform="translate(102,0)"/>
<path d="M0 0 C0.33 0 0.66 0 1 0 C1 4.62 1 9.24 1 14 C-0.32 14.33 -1.64 14.66 -3 15 C-2.8858134 13.06183265 -2.75826577 11.12444901 -2.625 9.1875 C-2.55539063 8.10855469 -2.48578125 7.02960938 -2.4140625 5.91796875 C-2 3 -2 3 0 0 Z " fill="#B7B7B7" transform="translate(41,70)"/>
<path d="M0 0 C1.46179688 0.06960937 1.46179688 0.06960937 2.953125 0.140625 C4.43039063 0.19476563 4.43039063 0.19476563 5.9375 0.25 C6.68515625 0.29640625 7.4328125 0.3428125 8.203125 0.390625 C8.203125 1.380625 8.203125 2.370625 8.203125 3.390625 C3.253125 3.720625 -1.696875 4.050625 -6.796875 4.390625 C-2.796875 0.390625 -2.796875 0.390625 0 0 Z " fill="#717171" transform="translate(93.796875,0.609375)"/>
<path d="M0 0 C4.29 0.33 8.58 0.66 13 1 C13 1.33 13 1.66 13 2 C10.36 2.33 7.72 2.66 5 3 C8.96 3.33 12.92 3.66 17 4 C17 4.33 17 4.66 17 5 C14.72975032 5.08097324 12.45867925 5.13917704 10.1875 5.1875 C8.29064453 5.23970703 8.29064453 5.23970703 6.35546875 5.29296875 C3 5 3 5 1.05078125 3.61328125 C0 2 0 2 0 0 Z " fill="#858585" transform="translate(86,47)"/>
<path d="M0 0 C0.33 0 0.66 0 1 0 C1 4.62 1 9.24 1 14 C-0.32 14.33 -1.64 14.66 -3 15 C-3 11.37 -3 7.74 -3 4 C-2.67 4 -2.34 4 -2 4 C-1.67 5.65 -1.34 7.3 -1 9 C-0.67 6.03 -0.34 3.06 0 0 Z " fill="#888888" transform="translate(121,19)"/>
<path d="M0 0 C0 0.66 0 1.32 0 2 C-4.29 2 -8.58 2 -13 2 C-12.67 1.34 -12.34 0.68 -12 0 C-3.89667897 -1.46125461 -3.89667897 -1.46125461 0 0 Z " fill="#707070" transform="translate(103,49)"/>
<path d="M0 0 C2.0625 0.4375 2.0625 0.4375 4 1 C3.34 2.32 2.68 3.64 2 5 C0.35 5 -1.3 5 -3 5 C-1.125 1.125 -1.125 1.125 0 0 Z "  transform="translate(66,70)"/>
<path d="M0 0 C0.99 0 1.98 0 3 0 C3 2.97 3 5.94 3 9 C2.01 9.495 2.01 9.495 1 10 C0.67 6.7 0.34 3.4 0 0 Z " fill="#6F6F6F" transform="translate(118,19)"/>
<path d="M0 0 C1.66611905 -0.042721 3.33382885 -0.04063832 5 0 C6 1 6 1 6.09765625 3.06640625 C6.08605469 3.89011719 6.07445312 4.71382813 6.0625 5.5625 C6.05347656 6.38878906 6.04445313 7.21507813 6.03515625 8.06640625 C6.01775391 9.02353516 6.01775391 9.02353516 6 10 C5.67 10 5.34 10 5 10 C4.731875 8.906875 4.46375 7.81375 4.1875 6.6875 C3.12336261 3.38307337 2.65345336 2.05039578 0 0 Z " fill="#A4A4A4" transform="translate(35,68)"/>
<path d="M0 0 C0.66 0 1.32 0 2 0 C2.33 1.65 2.66 3.3 3 5 C1.02 5.99 1.02 5.99 -1 7 C-1.04254356 5.00045254 -1.04080783 2.99958364 -1 1 C-0.67 0.67 -0.34 0.34 0 0 Z " fill="#818181" transform="translate(118,14)"/>
<path d="M0 0 C3.3 0 6.6 0 10 0 C10.33 0.99 10.66 1.98 11 3 C9.741875 2.87625 8.48375 2.7525 7.1875 2.625 C6.12595703 2.52058594 6.12595703 2.52058594 5.04296875 2.4140625 C3 2 3 2 0 0 Z " fill="#6F6F6F" transform="translate(23,1)"/>
</svg>
